<svg width="77" height="15" viewBox="0 0 77 15" fill="none" xmlns="http://www.w3.org/2000/svg">
<path d="M7.2245 14.94C3.1045 14.94 0.364502 11.98 0.364502 7.5C0.364502 3.04 3.1845 0.0200009 7.3245 0.0200009C10.5845 0.0200009 13.0845 1.96 13.6245 4.92H11.5245C10.9845 3.04 9.3645 1.9 7.2645 1.9C4.3445 1.9 2.4245 4.1 2.4245 7.48C2.4245 10.86 4.3445 13.06 7.2645 13.06C9.3845 13.06 11.0645 11.92 11.6045 10.14H13.6845C13.0645 13.02 10.4845 14.94 7.2245 14.94Z" fill="white"/>
<path d="M18.0478 14.72H16.0878V0.26H18.0478L25.4478 11.44V0.26H27.4078V14.72H25.4478L18.0478 3.54V14.72Z" fill="white"/>
<path d="M36.7753 14.94C32.6553 14.94 29.9153 11.98 29.9153 7.5C29.9153 3.04 32.7353 0.0200009 36.8753 0.0200009C40.1353 0.0200009 42.6353 1.96 43.1753 4.92H41.0753C40.5353 3.04 38.9153 1.9 36.8153 1.9C33.8953 1.9 31.9753 4.1 31.9753 7.48C31.9753 10.86 33.8953 13.06 36.8153 13.06C38.9353 13.06 40.6153 11.92 41.1553 10.14H43.2353C42.6153 13.02 40.0353 14.94 36.7753 14.94Z" fill="white"/>
<path d="M51.2586 9.56H47.5986V14.72H45.6386V0.26H51.2586C54.0986 0.26 55.9186 2.12 55.9186 4.9C55.9186 7.6 54.0786 9.56 51.2586 9.56ZM50.9186 2.02H47.5986V7.8H50.8386C52.7786 7.8 53.8586 6.66 53.8586 4.88C53.8586 3.06 52.7586 2.02 50.9186 2.02Z" fill="white"/>
<path d="M56.7386 2.06V0.26H67.3986V2.06H63.0586V14.72H61.0986V2.06H56.7386Z" fill="white"/>
<path d="M72.629 8.2C70.269 8.2 68.489 6.42 68.489 4.1C68.489 1.78 70.289 0 72.629 0C74.969 0 76.729 1.76 76.729 4.1C76.729 6.44 74.969 8.2 72.629 8.2ZM72.629 7.52C74.569 7.52 76.009 6.06 76.009 4.1C76.009 2.14 74.569 0.680001 72.629 0.680001C70.669 0.680001 69.229 2.14 69.229 4.1C69.229 6.06 70.669 7.52 72.629 7.52ZM71.749 6.34H71.009V1.74H72.809C73.809 1.74 74.489 2.26 74.489 3.14C74.489 3.74 74.149 4.24 73.529 4.46L74.549 6.34H73.729L72.849 4.66H71.749V6.34ZM73.689 3.18C73.689 2.68 73.349 2.44 72.789 2.44H71.749V3.96H72.789C73.349 3.96 73.689 3.68 73.689 3.18Z" fill="white"/>
</svg>
