<svg width="1700" height="266" viewBox="0 0 1700 266" fill="none" xmlns="http://www.w3.org/2000/svg">
<g style="mix-blend-mode:difference">
<path d="M96.5523 260.713H0V4.92138H90.0674C138.704 4.92138 168.606 29.4197 168.606 69.7699C168.606 100.393 155.276 120.568 127.896 131.376C158.879 141.824 174.371 162.72 174.371 194.423C174.371 234.413 143.387 260.713 96.5523 260.713ZM91.1482 20.7733H17.2929V124.531H95.1112C130.418 124.531 150.953 104.716 150.953 71.211C150.953 39.5073 128.977 20.7733 91.1482 20.7733ZM97.6331 140.383H17.2929V244.861H97.6331C134.741 244.861 156.717 225.046 156.717 192.262C156.717 160.198 134.381 140.383 97.6331 140.383Z" fill="white"/>
<path d="M221.256 173.888V4.92138H238.549V173.528C238.549 221.804 264.849 248.103 313.125 248.103C360.32 248.103 386.62 221.443 386.62 173.528V4.92138H403.913V173.888C403.913 230.811 370.048 265.036 313.125 265.036C255.482 265.036 221.256 231.171 221.256 173.888Z" fill="white"/>
<path d="M538.567 260.713H466.873V4.92138H538.567C616.025 4.92138 667.543 56.0797 667.543 132.817C667.543 209.555 616.025 260.713 538.567 260.713ZM538.567 20.7733H484.166V244.861H538.567C605.937 244.861 649.89 200.908 649.89 132.817C649.89 64.3659 606.658 20.7733 538.567 20.7733Z" fill="white"/>
<path d="M697.443 260.713H680.15L774.901 4.92138H800.48L896.312 260.713H878.658L851.638 189.019H724.103L697.443 260.713ZM785.348 23.2951L729.867 173.167H845.874L789.672 23.2951C788.951 21.1335 787.87 18.6116 787.51 16.8103C787.15 18.2514 786.069 21.4938 785.348 23.2951Z" fill="white"/>
<path d="M1029.57 164.521H951.391V260.713H934.098V4.92138H1029.57C1078.21 4.92138 1108.11 36.6251 1108.11 84.1807C1108.11 129.214 1077.85 164.521 1029.57 164.521ZM1028.85 20.7733H951.391V148.669H1026.69C1066.68 148.669 1090.45 121.649 1090.45 83.4602C1090.45 44.9113 1066.32 20.7733 1028.85 20.7733Z" fill="white"/>
<path d="M1301.77 260.713H1151.17V4.92138H1301.41V20.7733H1168.47V124.531H1289.52V140.383H1168.47V244.861H1301.77V260.713Z" fill="white"/>
<path d="M1340.08 69.4097C1340.08 27.6184 1372.87 0.598145 1423.31 0.598145C1467.26 0.598145 1496.44 25.0965 1501.49 66.1672H1483.47C1479.87 34.4635 1458.25 16.45 1423.31 16.45C1383.68 16.45 1357.38 37.3457 1357.38 69.4097C1357.38 93.908 1372.15 110.12 1401.33 117.686L1446.72 129.214C1485.27 138.942 1505.81 161.999 1505.81 194.784C1505.81 237.656 1472.66 265.036 1421.51 265.036C1373.59 265.036 1341.17 240.178 1337.2 200.188H1355.58C1357.02 229.369 1383.32 248.824 1421.51 248.824C1462.22 248.824 1488.52 227.928 1488.52 195.144C1488.52 169.925 1473.74 152.992 1443.48 145.427L1399.17 134.258C1360.62 124.531 1340.08 102.554 1340.08 69.4097Z" fill="white"/>
<path d="M1522.03 20.7733V4.92138H1700V20.7733H1619.66V260.713H1602.37V20.7733H1522.03Z" fill="white"/>
</g>
</svg>
