<svg width="1760" height="357" viewBox="0 0 1760 357" fill="none" xmlns="http://www.w3.org/2000/svg">
<path d="M159.726 356.349C65.541 356.349 0 283.526 0 178.66C0 73.3088 66.0265 0.485482 161.668 0.485482C232.064 0.485482 289.351 44.1795 304.402 109.721H278.671C263.135 56.3167 217.499 22.818 160.211 22.818C79.1347 22.818 23.789 85.9316 23.789 178.66C23.789 271.388 79.1347 334.016 160.211 334.016C217.499 334.016 264.592 301.974 280.613 252.454H306.344C289.837 314.597 230.607 356.349 159.726 356.349Z" fill="white"/>
<path d="M392.673 351.009H369.37V6.31135H393.159L595.122 311.684V6.31135H618.426V351.009H595.122L392.673 44.665V351.009Z" fill="white"/>
<path d="M843.867 356.349C749.682 356.349 684.141 283.526 684.141 178.66C684.141 73.3088 750.168 0.485482 845.809 0.485482C916.205 0.485482 973.493 44.1795 988.543 109.721H962.812C947.276 56.3167 901.64 22.818 844.353 22.818C763.276 22.818 707.93 85.9316 707.93 178.66C707.93 271.388 763.276 334.016 844.353 334.016C901.64 334.016 948.733 301.974 964.754 252.454H990.485C973.978 314.597 914.748 356.349 843.867 356.349Z" fill="white"/>
<path d="M1182.17 221.383H1076.81V351.009H1053.51V6.31135H1182.17C1247.71 6.31135 1288 49.0344 1288 113.119C1288 173.805 1247.22 221.383 1182.17 221.383ZM1181.19 27.6729H1076.81V200.021H1178.28C1232.17 200.021 1264.21 163.61 1264.21 112.148C1264.21 60.2006 1231.69 27.6729 1181.19 27.6729Z" fill="white"/>
<path d="M1307.2 27.6729V6.31135H1547.03V27.6729H1438.77V351.009H1415.46V27.6729H1307.2Z" fill="white"/>
<path d="M1665.82 187.884C1611.93 187.884 1571.14 147.103 1571.14 93.6994C1571.14 40.7811 1612.41 0 1665.82 0C1719.22 0 1760 40.2956 1760 93.6994C1760 147.589 1719.7 187.884 1665.82 187.884ZM1665.82 174.291C1711.45 174.291 1745.92 139.821 1745.92 93.6994C1745.92 48.0634 1711.45 13.5937 1665.82 13.5937C1620.18 13.5937 1585.71 48.0634 1585.71 93.6994C1585.71 139.821 1619.69 174.291 1665.82 174.291ZM1645.91 145.161H1630.86V40.2956H1668.73C1691.55 40.2956 1706.11 52.4328 1706.11 72.3379C1706.11 85.9316 1698.83 97.0978 1684.26 101.953L1708.05 145.161H1691.06L1669.7 105.351H1645.91V145.161ZM1690.09 72.8233C1690.09 60.6861 1681.84 54.3748 1668.24 54.3748H1645.91V91.2719H1668.24C1681.84 91.2719 1690.09 84.9606 1690.09 72.8233Z" fill="white"/>
</svg>
