<svg xmlns="http://www.w3.org/2000/svg" xmlns:xlink="http://www.w3.org/1999/xlink" viewBox="0 0 112 25"><g transform="translate(0.075 -0.062)" id="ss11922093674_1"><path d="M 0 0.137 L 111.875 0.137 L 111.875 25.137 L 0 25.137 Z" fill="transparent"></path><g transform="translate(0.049 0)" id="ss11922093674_3"><path d="M 10.031 25 L 8.121 25 L 8.121 0 L 10.031 1.592 L 10.031 24.999 Z M 3.98 25 L 5.891 25 L 5.891 4.844 L 3.981 6.436 L 3.981 24.999 Z M 1.91 25 L 0 25 L 0 11.214 L 1.91 9.621 L 1.91 24.998 Z M 18.152 25 L 16.242 25 L 16.242 9.622 L 18.152 11.214 Z M 12.261 25 L 14.171 25 L 14.171 6.437 L 12.261 4.845 Z" fill="rgb(255,255,255)"></path><path d="M 38.943 17.954 L 38.943 17.094 L 36.819 17.094 L 36.819 17.916 C 36.819 19.749 37.412 21.387 39.969 21.387 C 42.525 21.387 43.205 19.539 43.205 17.567 C 43.205 15.227 42.577 14.334 40.527 12.792 C 39.323 11.899 39.139 11.359 39.139 10.438 C 39.139 9.516 39.301 8.91 40.012 8.91 C 40.723 8.91 40.884 9.512 40.884 10.467 L 40.884 11.149 L 42.978 11.149 L 42.978 10.404 C 42.978 8.896 42.534 7.062 40.06 7.062 C 37.586 7.062 37.041 8.91 37.041 10.739 C 37.041 12.797 37.831 13.561 39.301 14.735 C 40.771 15.91 41.09 16.373 41.09 17.868 C 41.09 18.77 40.854 19.563 40.051 19.563 C 39.249 19.563 38.943 18.985 38.943 17.953 Z M 26.593 21.186 L 27.069 17.471 L 29.184 17.471 L 29.725 21.186 L 31.933 21.186 L 29.643 7.286 L 26.658 7.286 L 24.451 21.186 Z M 28.159 9.326 C 28.316 10.896 28.613 13.136 28.927 15.499 L 27.347 15.499 L 27.483 14.48 C 27.739 12.561 28.042 10.292 28.089 9.325 L 28.159 9.325 Z M 54.989 21.186 L 53.339 21.186 C 53.279 20.842 53.241 20.495 53.226 20.146 C 52.846 21.072 52.048 21.392 51.166 21.392 C 49.151 21.392 48.501 19.912 48.501 17.572 L 48.501 11.025 C 48.501 8.757 49.374 7.085 51.751 7.085 C 54.626 7.085 54.931 9.23 54.931 10.725 L 54.931 11.173 L 52.807 11.173 L 52.807 10.619 C 52.807 9.884 52.702 9.039 51.738 9.039 C 50.966 9.039 50.638 9.579 50.638 10.691 L 50.638 17.801 C 50.638 18.914 50.958 19.491 51.721 19.491 C 52.637 19.491 52.86 18.718 52.86 17.285 L 52.86 15.255 L 51.673 15.255 L 51.673 13.413 L 54.988 13.413 L 54.988 21.186 Z M 62.361 21.186 L 62.841 17.471 L 64.94 17.471 L 65.48 21.186 L 67.68 21.186 L 65.389 7.286 L 62.405 7.286 L 60.224 21.186 Z M 63.931 9.326 C 64.089 10.896 64.385 13.136 64.7 15.499 L 63.103 15.499 L 63.238 14.48 C 63.494 12.56 63.797 10.292 63.845 9.325 L 63.932 9.325 Z M 74.903 14.974 L 74.903 21.181 L 72.792 21.181 L 72.792 7.286 L 75.715 7.286 C 77.8 7.286 79.03 8.136 79.03 10.629 L 79.03 11.159 C 79.03 13.293 78.158 13.838 77.639 14.057 C 78.437 14.439 78.891 15.012 78.891 16.922 C 78.856 18.347 78.898 19.772 79.017 21.192 L 76.976 21.192 C 76.821 20.47 76.829 18.666 76.834 17.538 L 76.836 17.062 C 76.836 15.367 76.618 14.98 75.392 14.98 L 74.903 14.975 Z M 74.903 13.202 L 75.387 13.202 C 76.504 13.202 76.914 12.772 76.914 11.264 L 76.914 10.786 C 76.914 9.712 76.696 9.058 75.501 9.058 L 74.903 9.058 Z M 87.629 7.286 L 84.702 7.286 L 84.702 21.186 L 87.629 21.186 C 90.883 21.186 91.241 18.851 91.241 16.726 L 91.241 11.398 C 91.241 8.814 90.534 7.286 87.629 7.286 Z M 87.511 19.362 L 86.835 19.362 L 86.835 9.129 L 87.498 9.129 C 88.894 9.129 89.112 9.951 89.112 11.226 L 89.112 17.018 C 89.112 18.455 88.902 19.362 87.512 19.362 Z M 99.05 7.286 L 99.05 21.186 L 96.938 21.186 L 96.938 7.286 Z M 106.37 21.186 L 106.85 17.471 L 108.957 17.471 L 109.494 21.186 L 111.701 21.186 L 109.411 7.286 L 106.427 7.286 L 104.219 21.186 Z M 108.594 14.66 L 108.704 15.5 L 107.116 15.5 L 107.198 14.887 C 107.466 12.894 107.806 10.362 107.858 9.325 L 107.936 9.325 C 108.075 10.709 108.325 12.611 108.594 14.66 Z" fill="rgb(255,255,255)"></path></g></g></svg>