<svg xmlns="http://www.w3.org/2000/svg" xmlns:xlink="http://www.w3.org/1999/xlink" viewBox="0 0 90 25"><g transform="translate(0.497 -0.002)" id="ss11233125508_1"><path d="M 0.003 0.502 L 89.503 0.502 L 89.503 25.502 L 0.003 25.502 Z" fill="transparent"></path><g transform="translate(0 0)" id="ss11233125508_3"><path d="M 13.233 21.22 C 14.847 21.084 16.391 20.502 17.694 19.54 L 20.117 22.414 C 14.975 26.365 7.665 25.728 3.284 20.946 C -1.097 16.165 -1.094 8.828 3.29 4.05 C 7.674 -0.729 14.984 -1.361 20.124 2.593 L 17.701 5.468 C 14.573 3.153 10.293 3.182 7.196 5.538 C 4.1 7.895 2.932 12.013 4.329 15.644 C 5.727 19.276 9.355 21.548 13.232 21.22 Z" fill="rgb(255,255,255)"></path><path d="M 20.977 21.688 L 18.554 18.813 L 18.558 18.813 C 20.283 17.166 21.258 14.886 21.258 12.501 C 21.258 10.116 20.283 7.835 18.558 6.188 L 20.983 3.313 C 23.547 5.681 25.005 9.012 25.004 12.502 C 25.003 15.992 23.543 19.323 20.977 21.688 Z M 70.811 0.752 L 70.811 20.827 L 73.204 20.827 L 73.204 0.752 L 70.812 0.752 Z" fill="rgb(255,255,255)"></path><path d="M 82.683 18.929 C 80.126 18.929 78.173 17.527 77.706 15.052 L 89.229 15.052 C 89.284 14.697 89.311 14.339 89.311 13.979 C 89.311 10.129 86.616 6.719 82.464 6.719 C 78.174 6.719 75.259 9.882 75.259 13.952 C 75.259 18.077 78.201 21.185 82.629 21.185 C 85.379 21.185 87.469 19.947 88.679 18.077 L 86.643 16.922 C 85.955 18.049 84.58 18.929 82.683 18.929 Z M 77.706 12.962 C 78.091 10.569 79.879 8.975 82.464 8.975 C 84.526 8.975 86.479 10.239 86.891 12.962 Z" fill="rgb(255,255,255)"></path><path d="M 63.087 21.185 C 58.934 21.185 55.854 18.022 55.854 13.952 C 55.854 9.882 58.934 6.72 63.087 6.72 C 65.809 6.72 68.119 8.15 69.164 10.322 L 67.157 11.477 C 66.469 10.02 64.929 9.057 63.087 9.057 C 60.337 9.057 58.247 11.174 58.247 13.952 C 58.247 16.702 60.337 18.819 63.087 18.819 C 64.957 18.819 66.469 17.857 67.239 16.427 L 69.274 17.61 C 68.119 19.755 65.782 21.185 63.087 21.185 Z M 55.86 6.83 C 54.128 6.83 52.45 7.462 51.57 9.387 L 51.57 7.077 L 49.178 7.077 L 49.178 20.827 L 51.57 20.827 L 51.57 13.54 C 51.57 10.295 53.798 9.25 55.86 9.332 Z M 45.17 4.574 C 44.743 4.58 44.331 4.414 44.027 4.115 C 43.722 3.815 43.55 3.407 43.548 2.979 C 43.548 2.099 44.263 1.357 45.17 1.357 C 46.05 1.357 46.765 2.099 46.765 2.979 C 46.765 3.859 46.05 4.574 45.17 4.574 Z M 43.96 20.827 L 43.96 7.077 L 46.353 7.077 L 46.353 20.827 Z M 29.003 13.952 C 29.003 18.022 32.083 21.185 36.236 21.185 C 38.931 21.185 41.268 19.755 42.423 17.61 L 40.388 16.427 C 39.618 17.857 38.106 18.819 36.236 18.819 C 33.486 18.819 31.396 16.702 31.396 13.952 C 31.396 11.175 33.486 9.057 36.236 9.057 C 38.078 9.057 39.618 10.02 40.306 11.477 L 42.313 10.322 C 41.268 8.15 38.958 6.72 36.235 6.72 C 32.083 6.72 29.003 9.882 29.003 13.952 Z" fill="rgb(255,255,255)"></path></g></g></svg>