<svg xmlns="http://www.w3.org/2000/svg" xmlns:xlink="http://www.w3.org/1999/xlink" viewBox="0 0 106 25"><g transform="translate(0.05 0)" id="ss9735190554_1"><path d="M 0 0.05 L 105.375 0.05 L 105.375 25.05 L 0 25.05 Z" fill="transparent"></path><path d="M 12.513 12.16 C 12.513 12.16 12.343 10.029 12.343 7.186 C 12.13 5.056 11.695 3.028 10.543 2.926 C 10.133 2.89 9.755 3.216 9.427 3.836 C 10.04 1.714 12.513 0 12.513 0 C 12.513 0 14.986 1.713 15.6 3.837 C 15.271 3.216 14.894 2.89 14.483 2.927 C 13.332 3.028 12.869 5.057 12.658 7.186 C 12.66 8.845 12.612 10.505 12.513 12.161 Z M 12.487 12.84 C 12.487 12.84 12.657 14.971 12.657 17.814 C 12.869 19.944 13.305 21.972 14.457 22.074 C 14.867 22.11 15.245 21.784 15.573 21.164 C 14.96 23.286 12.487 25 12.487 25 C 12.487 25 10.014 23.287 9.4 21.163 C 9.729 21.785 10.106 22.11 10.517 22.073 C 11.668 21.972 12.13 19.943 12.342 17.814 C 12.342 14.971 12.487 12.839 12.487 12.839 Z M 12.84 12.513 C 12.84 12.513 14.971 12.343 17.814 12.343 C 19.944 12.13 21.972 11.695 22.074 10.543 C 22.11 10.133 21.784 9.755 21.164 9.427 C 23.287 10.041 25 12.513 25 12.513 C 25 12.513 23.287 14.986 21.163 15.6 C 21.784 15.271 22.11 14.894 22.073 14.483 C 21.972 13.332 19.943 12.869 17.814 12.658 C 14.971 12.658 12.839 12.513 12.839 12.513 Z M 12.16 12.487 C 12.16 12.487 10.029 12.657 7.186 12.657 C 5.056 12.869 3.028 13.305 2.926 14.457 C 2.89 14.867 3.216 15.245 3.836 15.573 C 1.714 14.96 0 12.487 0 12.487 C 0 12.487 1.713 10.014 3.837 9.4 C 3.216 9.729 2.89 10.106 2.927 10.517 C 3.028 11.668 5.057 12.13 7.186 12.342 C 10.029 12.342 12.161 12.487 12.161 12.487 Z M 12.75 12.27 C 12.75 12.27 14.136 10.64 16.146 8.63 C 17.502 6.975 18.628 5.233 17.886 4.347 C 17.621 4.03 17.124 3.994 16.453 4.201 C 18.389 3.133 21.348 3.671 21.348 3.671 C 21.348 3.671 21.885 6.631 20.818 8.566 C 21.025 7.894 20.988 7.398 20.672 7.133 C 19.786 6.39 18.025 7.498 16.369 8.854 C 14.359 10.864 12.749 12.27 12.749 12.27 Z M 12.25 12.73 C 12.25 12.73 10.864 14.36 8.854 16.37 C 7.498 18.025 6.372 19.767 7.114 20.653 C 7.379 20.969 7.876 21.006 8.547 20.799 C 6.611 21.866 3.652 21.329 3.652 21.329 C 3.652 21.329 3.115 18.369 4.182 16.434 C 3.975 17.105 4.012 17.602 4.328 17.867 C 5.214 18.609 6.975 17.502 8.631 16.146 C 10.641 14.136 12.251 12.73 12.251 12.73 Z M 12.73 12.75 C 12.73 12.75 14.36 14.136 16.37 16.146 C 18.025 17.502 19.767 18.628 20.653 17.886 C 20.969 17.621 21.006 17.124 20.799 16.453 C 21.866 18.389 21.329 21.348 21.329 21.348 C 21.329 21.348 18.369 21.885 16.434 20.818 C 17.105 21.025 17.602 20.988 17.867 20.672 C 18.609 19.786 17.502 18.025 16.146 16.369 C 14.136 14.359 12.73 12.749 12.73 12.749 Z M 12.27 12.25 C 12.27 12.25 10.64 10.864 8.63 8.854 C 6.975 7.498 5.233 6.372 4.347 7.114 C 4.031 7.379 3.994 7.876 4.201 8.547 C 3.133 6.611 3.671 3.652 3.671 3.652 C 3.671 3.652 6.631 3.115 8.566 4.182 C 7.895 3.975 7.398 4.012 7.133 4.328 C 6.39 5.214 7.498 6.975 8.854 8.631 C 10.029 9.803 11.168 11.01 12.269 12.251 Z M 96.467 16.55 L 96.467 16.456 L 97.274 15.613 L 97.367 15.613 C 98.267 16.719 99.374 17.488 100.949 17.488 C 102.655 17.488 103.742 16.588 103.742 15.388 C 103.742 13.831 101.924 13.344 99.955 12.556 C 98.699 12.05 96.992 11.281 96.992 9.35 C 96.992 7.456 98.605 6.088 100.892 6.088 C 102.636 6.088 103.986 6.875 104.811 7.963 L 104.811 8.056 L 103.967 8.844 L 103.874 8.844 C 103.161 7.963 102.186 7.325 100.892 7.325 C 99.467 7.325 98.38 8.094 98.38 9.219 C 98.38 10.344 99.449 10.85 100.742 11.356 C 102.692 12.125 105.13 12.875 105.13 15.331 C 105.13 17.394 103.405 18.725 101.024 18.725 C 99.017 18.725 97.404 17.787 96.467 16.55 Z M 92.801 17.413 L 93.121 18.369 L 93.064 18.462 C 92.783 18.65 92.52 18.725 92.07 18.725 C 91.208 18.725 90.308 18.069 89.483 17.112 L 85.92 12.988 L 84.776 14.188 L 84.776 18.5 L 83.426 18.5 L 83.426 6.312 L 84.776 6.312 L 84.776 12.444 L 90.626 6.312 L 92.258 6.312 L 92.314 6.387 L 86.858 12.087 L 90.57 16.4 C 91.301 17.244 91.714 17.506 92.164 17.506 C 92.389 17.506 92.558 17.469 92.708 17.375 Z M 71.588 18.725 C 67.951 18.725 65.157 16.025 65.157 12.406 C 65.157 8.788 67.951 6.088 71.588 6.088 C 75.226 6.088 78.019 8.788 78.019 12.406 C 78.019 16.025 75.226 18.725 71.589 18.725 Z M 71.588 17.487 C 74.457 17.487 76.632 15.369 76.632 12.407 C 76.632 9.444 74.457 7.325 71.588 7.325 C 68.719 7.325 66.544 9.444 66.544 12.406 C 66.544 15.369 68.719 17.488 71.588 17.488 Z M 54.219 18.725 C 50.581 18.725 47.788 16.025 47.788 12.406 C 47.788 8.788 50.581 6.088 54.218 6.088 C 57.856 6.088 60.65 8.788 60.65 12.406 C 60.65 16.025 57.856 18.725 54.219 18.725 Z M 54.219 17.487 C 57.088 17.487 59.263 15.369 59.263 12.407 C 59.263 9.444 57.088 7.325 54.219 7.325 C 51.35 7.325 49.175 9.444 49.175 12.406 C 49.175 15.369 51.35 17.488 54.219 17.488 Z M 41.045 6.313 L 42.395 6.313 L 42.395 18.5 L 41.045 18.5 L 41.045 12.95 L 33.639 12.95 L 33.639 18.5 L 32.289 18.5 L 32.289 6.312 L 33.639 6.312 L 33.639 11.75 L 41.045 11.75 L 41.045 6.312 Z" fill="rgb(255,255,255)"></path></g></svg>