<svg xmlns="http://www.w3.org/2000/svg" xmlns:xlink="http://www.w3.org/1999/xlink" viewBox="0 0 93 25"><g transform="translate(0.475 0.475)" id="ss11802777955_1"><path d="M 0 0 L 92.5 0 L 92.5 25 L 0 25 Z" fill="transparent"></path><g transform="translate(0.011 0.416)" id="ss11802777955_3"><path d="M 8.157 8.945 C 7.15 6.851 7.759 4.337 9.612 2.936 C 11.465 1.534 14.049 1.632 15.79 3.171 C 17.531 4.71 17.946 7.263 16.782 9.274 L 12.842 16.109 L 14.022 18.155 L 18.558 10.3 C 20.399 6.993 19.246 2.822 15.969 0.929 C 12.691 -0.963 8.502 0.125 6.558 3.372 C 5.56 5.079 5.347 7.133 5.975 9.008 C 6.291 8.968 6.609 8.948 6.928 8.948 Z M 24.051 12.92 C 23.059 11.181 21.357 9.962 19.391 9.584 C 19.267 9.879 19.126 10.166 18.968 10.443 L 18.35 11.512 C 20.676 11.655 22.577 13.424 22.888 15.734 C 23.199 18.045 21.833 20.253 19.626 21.005 C 17.42 21.758 14.989 20.846 13.823 18.827 L 9.889 12.014 L 7.528 12.014 L 12.05 19.849 C 12.206 20.116 12.378 20.374 12.566 20.619 L 12.604 20.668 C 13.909 22.349 15.922 23.327 18.05 23.313 C 20.525 23.314 22.813 21.994 24.051 19.85 C 25.289 17.705 25.288 15.064 24.05 12.92 Z M 9.184 20.716 C 9.923 20.331 10.551 19.763 11.008 19.066 L 11.606 20.109 C 11.772 20.395 11.956 20.669 12.159 20.93 C 10.85 22.454 8.937 23.325 6.928 23.313 C 3.102 23.313 0 20.211 0 16.385 C 0 12.558 3.102 9.456 6.928 9.456 L 15.989 9.456 L 14.811 11.502 L 6.928 11.502 C 4.278 11.529 2.133 13.665 2.095 16.315 C 2.057 18.965 4.139 21.162 6.787 21.266 C 7.62 21.29 8.446 21.101 9.184 20.716 Z" fill="rgb(255,255,255)"></path><path d="M 42.009 19.362 L 41.649 17.652 L 41.469 17.584 C 41.316 17.686 41.136 17.741 40.952 17.741 C 40.592 17.741 40.277 17.539 39.894 17.111 L 36.654 13.309 L 41.109 8.517 L 41.042 8.359 L 38.409 8.359 L 33.752 13.489 L 33.752 4.399 L 33.572 4.264 L 31.299 4.602 L 31.299 19.609 L 33.752 19.609 L 33.752 15.874 L 34.854 14.681 L 38.027 18.507 C 38.702 19.339 39.557 19.879 40.637 19.879 C 41.199 19.879 41.627 19.744 41.919 19.542 Z" fill="rgb(255,255,255)"></path><path d="M 74.044 8.089 C 77.465 8.089 79.782 10.699 79.782 13.984 C 79.782 17.269 77.465 19.879 74.044 19.879 C 72.57 19.889 71.156 19.295 70.129 18.237 L 70.129 19.609 L 67.924 19.609 L 67.924 4.624 L 70.219 4.286 L 70.377 4.399 L 70.377 9.507 C 71.322 8.629 72.582 8.089 74.044 8.089 Z M 73.753 17.741 C 75.868 17.741 77.263 16.076 77.263 13.984 C 77.263 11.914 75.868 10.226 73.753 10.226 C 71.773 10.226 70.198 11.531 70.198 13.984 C 70.198 16.437 71.773 17.742 73.753 17.742 Z M 92.042 17.674 L 92.402 19.339 L 92.312 19.496 C 91.997 19.722 91.524 19.879 90.962 19.879 C 89.949 19.879 89.207 19.339 88.914 18.417 C 87.947 19.339 86.552 19.879 85.067 19.879 C 82.749 19.879 80.612 18.597 80.612 16.167 C 80.612 13.669 82.862 12.521 85.629 12.521 C 86.844 12.521 87.789 12.746 88.599 13.039 L 88.599 12.409 C 88.599 10.789 87.137 10.001 85.584 10.001 C 84.302 10.001 83.312 10.541 82.524 11.307 L 82.344 11.307 L 81.107 10.137 L 81.107 9.957 C 82.322 8.787 83.874 8.089 85.809 8.089 C 88.239 8.089 91.007 9.169 91.007 12.409 L 91.007 16.751 C 91.007 17.359 91.119 17.741 91.524 17.741 C 91.656 17.738 91.783 17.691 91.884 17.606 Z M 88.6 15.536 L 88.6 14.704 C 88.015 14.479 87.048 14.186 85.945 14.186 C 84.168 14.186 83.065 14.951 83.065 16.166 C 83.065 17.449 84.28 18.079 85.563 18.079 C 87.115 18.079 88.6 17.112 88.6 15.536 Z" fill="rgb(255,255,255)"></path><path d="M 65.712 12.836 C 65.712 10.024 63.889 8.089 61.032 8.089 C 59.523 8.089 58.242 8.629 57.364 9.507 C 57.072 8.607 56.373 8.089 55.339 8.089 C 54.754 8.089 54.259 8.246 53.944 8.471 L 53.853 8.629 L 54.213 10.294 L 54.371 10.361 C 54.473 10.277 54.6 10.229 54.731 10.226 C 55.158 10.226 55.248 10.609 55.248 11.216 L 55.248 19.609 L 57.724 19.609 L 57.724 13.039 C 57.724 11.329 58.872 10.204 60.559 10.204 C 62.247 10.204 63.259 11.329 63.259 13.039 L 63.259 19.609 L 65.712 19.609 Z" fill="rgb(255,255,255)"></path><path d="M 53.241 17.674 L 53.601 19.339 L 53.511 19.496 C 53.196 19.722 52.724 19.879 52.161 19.879 C 51.149 19.879 50.406 19.339 50.114 18.417 C 49.146 19.339 47.751 19.879 46.266 19.879 C 43.949 19.879 41.811 18.597 41.811 16.167 C 41.811 13.669 44.061 12.521 46.829 12.521 C 48.044 12.521 48.989 12.746 49.799 13.039 L 49.799 12.409 C 49.799 10.789 48.337 10.001 46.784 10.001 C 45.501 10.001 44.511 10.541 43.724 11.307 L 43.544 11.307 L 42.306 10.137 L 42.306 9.957 C 43.521 8.787 45.074 8.089 47.009 8.089 C 49.439 8.089 52.207 9.169 52.207 12.409 L 52.207 16.751 C 52.207 17.359 52.319 17.741 52.724 17.741 C 52.856 17.738 52.983 17.691 53.084 17.606 Z M 49.8 15.536 L 49.8 14.704 C 49.215 14.479 48.248 14.186 47.145 14.186 C 45.367 14.186 44.265 14.951 44.265 16.166 C 44.265 17.449 45.48 18.079 46.763 18.079 C 48.315 18.079 49.8 17.112 49.8 15.536 Z" fill="rgb(255,255,255)"></path></g></g></svg>