<svg xmlns="http://www.w3.org/2000/svg" xmlns:xlink="http://www.w3.org/1999/xlink" viewBox="0 0 106 25"><path d="M 5.707 21.946 L 5.707 8.446 L 6.992 6.946 L 6.992 21.42 C 8.583 20.502 9.563 18.805 9.562 16.969 L 9.562 0 L 3.138 7.5 L 3.138 22.113 L 4.423 22.113 C 4.856 22.112 5.288 22.056 5.707 21.946 Z" fill="rgb(255,255,255)"></path><path d="M 17.274 23.394 L 17.274 12.316 L 10.847 4.816 L 10.847 16.965 C 10.844 20.512 7.97 23.387 4.423 23.391 L 0.25 23.391 L 0.25 25 L 13.419 25 L 13.419 11.768 L 14.704 13.268 L 14.704 25 L 20 25 L 20 23.394 Z M 36.582 8.34 L 36.582 6.624 L 38.118 6.624 L 38.118 8.338 L 36.582 8.338 Z M 36.582 21.688 L 36.582 10.468 L 38.118 10.468 L 38.118 21.688 Z M 75.43 21.688 C 74.812 21.818 74.181 21.871 73.55 21.844 C 72.978 21.826 72.417 21.692 71.899 21.449 C 71.42 21.216 71.034 20.828 70.802 20.349 C 70.606 19.957 70.493 19.529 70.468 19.091 C 70.453 18.603 70.446 18.114 70.447 17.626 L 70.447 11.778 L 68.034 11.778 L 68.034 10.468 L 70.447 10.468 L 70.447 7.353 L 71.972 7.353 L 71.972 10.47 L 75.43 10.47 L 75.43 11.779 L 71.972 11.779 L 71.972 17.565 C 71.972 18.036 71.976 18.431 71.982 18.749 C 71.996 19.061 72.07 19.339 72.202 19.58 C 72.452 20.045 72.85 20.321 73.392 20.411 C 73.943 20.501 74.622 20.481 75.43 20.349 L 75.43 21.689 Z M 94.57 21.688 C 93.952 21.818 93.321 21.871 92.69 21.844 C 92.118 21.826 91.557 21.692 91.039 21.449 C 90.56 21.216 90.174 20.828 89.942 20.349 C 89.746 19.957 89.633 19.529 89.608 19.091 C 89.593 18.603 89.586 18.114 89.587 17.626 L 89.587 11.778 L 87.174 11.778 L 87.174 10.468 L 89.587 10.468 L 89.587 7.353 L 91.112 7.353 L 91.112 10.47 L 94.57 10.47 L 94.57 11.779 L 91.112 11.779 L 91.112 17.565 C 91.112 18.036 91.116 18.431 91.122 18.749 C 91.136 19.061 91.21 19.339 91.342 19.58 C 91.592 20.045 91.99 20.321 92.533 20.411 C 93.083 20.501 93.763 20.481 94.57 20.349 L 94.57 21.689 Z" fill="rgb(255,255,255)"></path><path d="M 100.741 22 C 99.641 22 98.687 21.758 97.879 21.273 C 97.078 20.788 96.455 20.106 96.009 19.226 C 95.563 18.346 95.34 17.315 95.34 16.131 C 95.34 14.905 95.56 13.845 95.998 12.951 C 96.438 12.058 97.054 11.369 97.848 10.884 C 98.648 10.399 99.592 10.157 100.679 10.157 C 101.793 10.157 102.744 10.413 103.531 10.926 C 104.318 11.431 104.913 12.159 105.317 13.107 C 105.721 14.057 105.906 15.189 105.871 16.505 L 96.981 16.505 C 97.039 17.714 97.356 18.67 97.931 19.372 C 98.579 20.147 99.495 20.535 100.679 20.535 C 101.487 20.535 102.19 20.352 102.789 19.985 C 103.395 19.611 103.872 19.074 104.22 18.375 L 105.652 18.925 C 105.206 19.901 104.548 20.66 103.677 21.2 C 102.813 21.733 101.835 22 100.741 22 Z M 103.353 12.671 C 103.852 13.281 104.155 14.133 104.262 15.227 L 97.011 15.227 C 97.116 14.186 97.422 13.355 97.931 12.733 C 98.579 11.951 99.509 11.56 100.721 11.56 C 101.877 11.56 102.754 11.93 103.353 12.671 Z M 78.322 21.543 C 78.9 21.848 79.613 22 80.463 22 C 81.592 22 82.56 21.747 83.368 21.242 C 83.934 20.888 84.41 20.407 84.757 19.836 L 84.757 21.688 L 86.125 21.688 L 86.125 14.718 C 86.125 14.302 86.105 13.893 86.063 13.492 C 86.028 13.117 85.936 12.749 85.791 12.401 C 85.491 11.674 84.98 11.12 84.256 10.739 C 83.538 10.351 82.664 10.157 81.633 10.157 C 80.387 10.157 79.373 10.434 78.593 10.988 C 77.813 11.542 77.294 12.321 77.037 13.326 L 78.53 13.762 C 78.746 13.014 79.119 12.467 79.648 12.12 C 80.185 11.774 80.839 11.601 81.612 11.601 C 82.734 11.601 83.521 11.868 83.974 12.401 C 84.391 12.893 84.607 13.629 84.622 14.61 C 84.254 14.662 83.85 14.715 83.409 14.77 C 82.748 14.846 82.069 14.94 81.372 15.05 C 80.682 15.154 80.052 15.275 79.482 15.414 C 78.953 15.544 78.448 15.758 77.987 16.047 C 77.569 16.317 77.221 16.684 76.974 17.117 C 76.73 17.547 76.608 18.067 76.608 18.676 C 76.608 19.271 76.751 19.822 77.037 20.328 C 77.322 20.833 77.75 21.238 78.322 21.543 Z M 82.522 20.296 C 81.985 20.552 81.358 20.681 80.641 20.681 C 80.035 20.681 79.547 20.581 79.178 20.379 C 78.816 20.179 78.551 19.926 78.384 19.621 C 78.228 19.33 78.145 19.006 78.144 18.676 C 78.144 18.274 78.238 17.938 78.426 17.668 C 78.621 17.398 78.868 17.183 79.168 17.024 C 79.468 16.858 79.778 16.73 80.098 16.64 C 80.621 16.505 81.151 16.397 81.686 16.317 C 82.277 16.227 82.876 16.147 83.482 16.078 C 83.872 16.035 84.245 15.99 84.598 15.946 L 84.59 16.546 C 84.583 16.976 84.538 17.37 84.454 17.73 C 84.362 18.278 84.144 18.798 83.817 19.247 C 83.489 19.69 83.057 20.04 82.521 20.297 Z" fill="rgb(255,255,255)"></path><path d="M 59.668 21.138 C 60.525 21.706 61.615 21.99 62.938 21.99 C 64.324 21.99 65.41 21.688 66.198 21.086 C 66.991 20.476 67.388 19.642 67.388 18.582 C 67.388 18 67.263 17.512 67.012 17.117 C 66.762 16.723 66.34 16.38 65.748 16.089 C 65.156 15.798 64.341 15.521 63.303 15.258 C 62.419 15.036 61.736 14.832 61.256 14.645 C 60.782 14.458 60.455 14.261 60.274 14.053 C 60.093 13.838 59.996 13.565 60.002 13.284 C 60.002 12.751 60.252 12.324 60.754 12.006 C 61.256 11.681 61.907 11.528 62.708 11.549 C 63.558 11.563 64.258 11.764 64.808 12.152 C 65.365 12.532 65.696 13.052 65.8 13.71 L 67.367 13.43 C 67.299 12.798 67.045 12.201 66.636 11.715 C 66.225 11.224 65.682 10.843 65.006 10.573 C 64.338 10.296 63.578 10.157 62.729 10.157 C 61.879 10.157 61.134 10.292 60.493 10.562 C 59.853 10.825 59.351 11.199 58.989 11.684 C 58.627 12.162 58.446 12.72 58.446 13.357 C 58.446 13.883 58.567 14.33 58.811 14.697 C 59.055 15.057 59.466 15.376 60.044 15.653 C 60.622 15.93 61.423 16.207 62.447 16.483 C 63.401 16.74 64.118 16.962 64.599 17.149 C 65.079 17.335 65.396 17.539 65.549 17.762 C 65.709 17.976 65.789 18.257 65.789 18.603 C 65.789 19.219 65.543 19.708 65.048 20.068 C 64.553 20.421 63.878 20.598 63.021 20.598 C 62.144 20.598 61.406 20.41 60.806 20.037 C 60.215 19.656 59.835 19.147 59.668 18.51 L 58.101 18.77 C 58.296 19.78 58.818 20.57 59.668 21.138 Z" fill="rgb(255,255,255)"></path><path d="M 50.764 22 C 49.914 22 49.2 21.848 48.622 21.543 C 48.051 21.238 47.622 20.833 47.337 20.328 C 47.052 19.824 46.904 19.255 46.908 18.676 C 46.908 18.066 47.03 17.546 47.274 17.117 C 47.524 16.681 47.863 16.324 48.288 16.047 C 48.749 15.758 49.253 15.544 49.782 15.414 C 50.406 15.265 51.037 15.144 51.672 15.05 C 52.349 14.942 53.029 14.849 53.71 14.77 C 54.114 14.72 54.518 14.667 54.922 14.61 C 54.907 13.63 54.692 12.893 54.274 12.401 C 53.821 11.868 53.034 11.601 51.913 11.601 C 51.14 11.601 50.485 11.774 49.949 12.121 C 49.419 12.467 49.047 13.014 48.831 13.761 L 47.337 13.326 C 47.594 12.321 48.113 11.542 48.893 10.988 C 49.673 10.434 50.687 10.158 51.933 10.158 C 52.964 10.158 53.838 10.351 54.556 10.738 C 55.28 11.12 55.792 11.674 56.092 12.401 C 56.231 12.726 56.322 13.091 56.363 13.491 C 56.405 13.893 56.426 14.302 56.426 14.718 L 56.426 21.688 L 55.057 21.688 L 55.057 19.836 C 54.71 20.407 54.234 20.888 53.667 21.242 C 52.86 21.747 51.892 22 50.763 22 Z M 50.941 20.68 C 51.658 20.68 52.285 20.552 52.821 20.296 C 53.333 20.059 53.779 19.699 54.117 19.247 C 54.444 18.797 54.657 18.291 54.754 17.73 C 54.838 17.37 54.884 16.975 54.89 16.546 C 54.894 16.316 54.897 16.116 54.898 15.946 C 54.545 15.99 54.173 16.035 53.783 16.078 C 53.183 16.147 52.583 16.227 51.986 16.318 C 51.401 16.408 50.871 16.515 50.398 16.64 C 50.078 16.73 49.768 16.858 49.468 17.024 C 49.168 17.184 48.921 17.398 48.726 17.668 C 48.538 17.938 48.444 18.274 48.444 18.676 C 48.444 19.001 48.524 19.316 48.684 19.621 C 48.852 19.926 49.116 20.179 49.478 20.379 C 49.848 20.58 50.335 20.681 50.941 20.681 Z" fill="rgb(255,255,255)"></path><path d="M 40.832 10.469 L 40.832 21.689 L 42.368 21.689 L 42.368 16.089 C 42.368 15.646 42.399 15.199 42.462 14.749 C 42.521 14.303 42.648 13.869 42.838 13.461 C 43.03 13.047 43.32 12.687 43.684 12.411 C 44.095 12.079 44.544 11.885 45.032 11.83 C 45.482 11.772 45.939 11.797 46.38 11.902 L 46.38 10.47 C 46.024 10.385 45.657 10.357 45.293 10.387 C 44.896 10.407 44.503 10.487 44.113 10.626 C 43.736 10.749 43.388 10.947 43.089 11.207 C 42.836 11.404 42.614 11.639 42.431 11.903 C 42.351 12.012 42.278 12.124 42.211 12.241 L 42.211 10.47 L 40.832 10.47 Z M 32.534 15.964 L 32.534 21.688 L 34.08 21.688 L 34.08 15.518 C 34.08 15.012 34.032 14.506 33.934 14.001 C 33.841 13.501 33.683 13.016 33.464 12.557 C 33.252 12.105 32.962 11.693 32.607 11.341 C 32.241 10.976 31.803 10.69 31.322 10.5 C 30.821 10.292 30.232 10.188 29.557 10.188 C 28.637 10.188 27.823 10.389 27.112 10.791 C 26.575 11.095 26.114 11.518 25.765 12.027 L 25.765 10.47 L 24.375 10.47 L 24.375 21.69 L 25.921 21.69 L 25.921 15.706 C 25.921 15.068 25.994 14.5 26.141 14.002 C 26.268 13.541 26.484 13.111 26.778 12.734 C 27.058 12.385 27.416 12.108 27.823 11.924 C 28.24 11.737 28.721 11.644 29.264 11.644 C 29.856 11.644 30.358 11.751 30.769 11.966 C 31.187 12.18 31.524 12.486 31.782 12.88 C 32.047 13.268 32.238 13.725 32.356 14.251 C 32.475 14.771 32.534 15.342 32.534 15.965 Z" fill="rgb(255,255,255)"></path></svg>