<svg xmlns="http://www.w3.org/2000/svg" xmlns:xlink="http://www.w3.org/1999/xlink" viewBox="0 0 80 25"><g transform="translate(0.024 0)" id="ss9790680656_1"><path d="M 0.001 0.025 L 79.376 0.025 L 79.376 25.025 L 0.001 25.025 Z" fill="transparent"></path><path d="M 24.962 0.04 C 18.098 6.946 18.111 18.11 25.001 25 C 18.111 18.11 6.947 18.096 0.041 24.96 C 6.903 18.055 6.89 6.89 0 0 C 6.89 6.89 18.054 6.904 24.96 0.04 Z M 78.096 4.135 L 75.732 4.135 L 75.732 1 L 78.097 1 L 78.097 4.135 Z M 78.096 21.157 L 75.732 21.157 L 75.732 6.802 L 78.097 6.802 L 78.097 21.157 Z M 69.386 6.802 L 73.113 6.802 L 73.113 8.782 L 69.605 8.782 L 69.605 21.157 L 67.213 21.157 L 67.213 8.92 C 67.213 7.517 67.928 6.802 69.385 6.802 Z" fill="rgb(255,255,255)"></path><path d="M 57.541 12.605 C 54.268 12.605 52.316 14.2 52.316 17.032 C 52.316 19.7 54.048 21.432 56.936 21.432 C 59.273 21.432 61.198 20.415 61.831 18.792 L 61.996 18.792 L 62.023 19.535 C 62.106 20.608 62.573 21.157 63.893 21.157 L 65.216 21.157 L 65.216 19.397 L 64.224 19.397 L 64.224 11.56 C 64.224 10.9 64.196 10.295 63.756 9.277 C 63.545 8.779 63.247 8.323 62.876 7.93 C 62.134 7.16 60.649 6.527 58.751 6.527 C 55.259 6.527 53.059 8.232 52.921 11.092 L 55.258 11.092 C 55.341 9.442 56.496 8.425 58.614 8.425 C 60.786 8.425 61.859 9.442 61.859 11.505 L 61.859 12.605 Z M 54.764 17.308 L 54.764 16.428 C 54.764 15.19 55.864 14.338 57.761 14.338 L 61.859 14.338 L 61.859 15.108 C 61.859 17.748 60.153 19.508 57.486 19.508 C 55.836 19.508 54.764 18.738 54.764 17.308 Z" fill="rgb(255,255,255)"></path><path d="M 47.263 8.783 L 47.263 19.178 L 50.288 19.178 L 50.288 21.158 L 46.988 21.158 C 45.586 21.158 44.898 20.498 44.898 19.15 L 44.898 8.783 L 42.286 8.783 L 42.286 6.803 L 44.898 6.803 L 44.898 2.045 L 47.263 2.045 L 47.263 6.803 L 50.261 6.803 L 50.261 8.783 Z M 31.866 16.813 L 29.501 16.813 C 29.501 19.59 31.729 21.433 35.359 21.433 C 38.851 21.433 41.079 19.783 41.079 17.033 C 41.079 14.887 39.813 13.595 37.311 13.155 L 34.478 12.633 C 33.901 12.523 33.653 12.44 33.076 12.193 C 32.498 11.89 32.169 11.34 32.169 10.57 C 32.169 9.222 33.241 8.37 35.194 8.37 C 37.228 8.37 38.274 9.222 38.328 10.9 L 40.694 10.9 C 40.666 8.26 38.604 6.527 35.194 6.527 C 31.894 6.527 29.776 8.15 29.776 10.817 C 29.776 12.88 31.041 14.145 33.599 14.613 L 36.679 15.19 C 37.943 15.438 38.576 16.098 38.576 17.17 C 38.576 18.682 37.366 19.562 35.358 19.562 C 33.241 19.562 31.866 18.49 31.866 16.812 Z" fill="rgb(255,255,255)"></path></g></svg>